<svg width="16" height="16" viewBox="0 0 16 16" fill="none" xmlns="http://www.w3.org/2000/svg">
<path d="M8 0.5C12.1423 0.5 15.5 3.85775 15.5 8C15.5 12.1423 12.1423 15.5 8 15.5C3.85775 15.5 0.5 12.1423 0.5 8C0.5 3.85775 3.85775 0.5 8 0.5ZM8 10.25C7.80109 10.25 7.61032 10.329 7.46967 10.4697C7.32902 10.6103 7.25 10.8011 7.25 11C7.25 11.1989 7.32902 11.3897 7.46967 11.5303C7.61032 11.671 7.80109 11.75 8 11.75C8.19891 11.75 8.38968 11.671 8.53033 11.5303C8.67098 11.3897 8.75 11.1989 8.75 11C8.75 10.8011 8.67098 10.6103 8.53033 10.4697C8.38968 10.329 8.19891 10.25 8 10.25ZM8 3.5C7.8163 3.50002 7.639 3.56747 7.50172 3.68954C7.36444 3.81161 7.27674 3.97981 7.25525 4.16225L7.25 4.25V8.75C7.25021 8.94116 7.32341 9.12502 7.45464 9.26403C7.58586 9.40303 7.76521 9.48668 7.95605 9.49788C8.14688 9.50908 8.33478 9.44699 8.48137 9.3243C8.62796 9.20161 8.72217 9.02757 8.74475 8.83775L8.75 8.75V4.25C8.75 4.05109 8.67098 3.86032 8.53033 3.71967C8.38968 3.57902 8.19891 3.5 8 3.5Z" fill="#9C7E1C"/>
</svg>
